<?xml version="1.0" encoding="iso-8859-1"?>
<svg version="1.1" id="Capa_1" xmlns="http://www.w3.org/2000/svg" xmlns:xlink="http://www.w3.org/1999/xlink" x="0px" y="0px"
	 viewBox="0 0 512 512" style="enable-background:new 0 0 512 512;" xml:space="preserve">
<g>
	<path style="fill:#005b53;" d="M256,17.655C124.366,17.655,17.655,124.366,17.655,256S124.366,494.345,256,494.345
		S494.345,387.634,494.345,256c0-63.213-25.111-123.837-69.81-168.535S319.213,17.655,256,17.655z M256,459.034
		c-112.133,0-203.034-90.902-203.034-203.034S143.867,52.966,256,52.966S459.034,143.867,459.034,256
		C458.893,368.074,368.074,458.893,256,459.034z"/>
	<g>
		<path style="fill:#00342f;" d="M248.011,0h15.978c5.338,0,9.666,4.328,9.666,9.666v86.599c0,5.339-4.328,9.666-9.666,9.666
			h-15.978c-5.339,0-9.666-4.328-9.666-9.666V9.666C238.345,4.328,242.673,0,248.011,0z"/>
		<path style="fill:#00342f;" d="M248.011,406.069h15.978c5.338,0,9.666,4.328,9.666,9.666v86.599c0,5.339-4.328,9.666-9.666,9.666
			h-15.978c-5.339,0-9.666-4.328-9.666-9.666v-86.599C238.345,410.397,242.673,406.069,248.011,406.069z"/>
		<path style="fill:#00342f;" d="M0,263.989v-15.978c0-5.338,4.328-9.666,9.666-9.666h86.599c5.338,0,9.666,4.328,9.666,9.666
			v15.978c0,5.339-4.328,9.666-9.666,9.666H9.666C4.328,273.655,0,269.327,0,263.989z"/>
		<path style="fill:#00342f;" d="M406.069,263.989v-15.978c0-5.339,4.328-9.666,9.666-9.666h86.599c5.339,0,9.666,4.328,9.666,9.666
			v15.978c0,5.339-4.328,9.666-9.666,9.666h-86.599C410.397,273.655,406.069,269.327,406.069,263.989z"/>
	</g>
</g>
<g>
</g>
<g>
</g>
<g>
</g>
<g>
</g>
<g>
</g>
<g>
</g>
<g>
</g>
<g>
</g>
<g>
</g>
<g>
</g>
<g>
</g>
<g>
</g>
<g>
</g>
<g>
</g>
<g>
</g>
</svg>
